<?xml version="1.0" encoding="UTF-8" standalone="no"?>
<svg
   xmlns:dc="http://purl.org/dc/elements/1.1/"
   xmlns:cc="http://creativecommons.org/ns#"
   xmlns:rdf="http://www.w3.org/1999/02/22-rdf-syntax-ns#"
   xmlns:svg="http://www.w3.org/2000/svg"
   xmlns="http://www.w3.org/2000/svg"
   xmlns:sodipodi="http://sodipodi.sourceforge.net/DTD/sodipodi-0.dtd"
   xmlns:inkscape="http://www.inkscape.org/namespaces/inkscape"
   id="Layer_1"
   viewBox="0 0 140 106"
   version="1.1"
   sodipodi:docname="popmoney.svg"
   width="140"
   height="106"
   inkscape:version="0.92.2 5c3e80d, 2017-08-06">
  <metadata
     id="metadata1503">
    <rdf:RDF>
      <cc:Work
         rdf:about="">
        <dc:format>image/svg+xml</dc:format>
        <dc:type
           rdf:resource="http://purl.org/dc/dcmitype/StillImage" />
        <dc:title></dc:title>
      </cc:Work>
    </rdf:RDF>
  </metadata>
  <defs
     id="defs1501" />
  <sodipodi:namedview
     pagecolor="#ffffff"
     bordercolor="#666666"
     borderopacity="1"
     objecttolerance="10"
     gridtolerance="10"
     guidetolerance="10"
     inkscape:pageopacity="0"
     inkscape:pageshadow="2"
     inkscape:window-width="1499"
     inkscape:window-height="829"
     id="namedview1499"
     showgrid="false"
     inkscape:zoom="1.141663"
     inkscape:cx="470.9558"
     inkscape:cy="109.16148"
     inkscape:window-x="0"
     inkscape:window-y="0"
     inkscape:window-maximized="0"
     inkscape:current-layer="Layer_1" />
  <style
     id="style1480">.st0{fill:none;stroke:#2e343a;stroke-miterlimit:10}</style>
  <g
     id="Money1"
     transform="translate(0,-134)">
    <path
       class="st0"
       d="m 1,10.001 v 100 m 10,-100 v 100 m 10,-100 v 100 m 10,-100 v 100 m 10,-100 v 100 m 10,-100 v 100 m 10,-100 v 100 m 10,-100 v 100 m 10,-100 v 100 m 10,-100 v 100 m 10,-100 v 100 m 10,-100 v 100 m 10,-100 v 100 m 10,-100 v 100 m 10,-100 v 100 m 10,-100 v 100 m 10,-100 v 100 m 10,-100 v 100 m 10,-100 v 100 m 10,-100 v 100 m 10,-100 v 100 m 10,-100 v 100 m 10,-100 v 100 m 10,-100 v 100 m 10,-100 v 100 m 10,-100 v 100 m 10,-100 v 100 m 10,-100 v 100 m 10,-100 v 100 m 10,-100 v 100 m 10,-100 v 100 m 10,-100 v 100 m 10,-100 v 100 m 10,-100 v 100 m 10,-100 v 100 m 10,-100 v 100 m 10,-100 v 100 m 10,-100 v 100 m 10,-100 v 100 m 10,-100 v 100 m 10,-100 v 100 m 10,-100 v 100 m 10,-100 v 100 m 10,-100 v 100 m 10,-100 v 100 m 10,-100 v 100 m 10,-100 v 100 m 10,-100 v 100 m 10,-100 v 100 m 10,-100 v 100 m 10,-100 v 100 m 10,-100 v 100 m 10,-100 v 100 m 10,-100 v 100 m 10,-100 v 100 m 10,-100 v 100 m 10,-100 v 100 m 10,-100 v 100 m 10,-100 v 100 m 10,-100 v 100 m 10,-100 v 100 m 10,-100 v 100 m 10,-100 v 100 m 10,-100 v 100 m 10,-100 v 100 m 10,-100 v 100 m 10,-100 v 100 m 10,-100 v 100 m 10,-100 v 100"
       id="path1482"
       inkscape:connector-curvature="0"
       style="fill:none;stroke:#2e343a;stroke-miterlimit:10" />
    <g
       id="g1488">
      <path
         class="st0"
         d="m 691,10 h 50 v 100 h -50 z"
         id="path1484"
         inkscape:connector-curvature="0"
         style="fill:none;stroke:#2e343a;stroke-miterlimit:10" />
      <path
         class="st0"
         d="m 701,73.198 c 3.665,4.162 9.018,6.802 15,6.802 5.982,0 11.335,-2.64 15,-6.802 m 0,-26.396 C 727.335,42.64 721.982,40 716,40 c -5.982,0 -11.335,2.64 -15,6.802"
         id="path1486"
         inkscape:connector-curvature="0"
         style="fill:none;stroke:#2e343a;stroke-miterlimit:10" />
    </g>
  </g>
  <g
     id="Money2"
     transform="translate(0,-134)">
    <path
       class="st0"
       d="m 321,130 h 50 V 230 H 321 Z M 1,130 V 230 M 11,130 V 230 M 21,130 V 230 M 31,130 V 230 M 41,130 V 230 M 51,130 V 230 M 61,130 V 230 M 71,130 V 230 M 81,130 V 230 M 91,130 v 100 m 10,-100 v 100 m 10,-100 v 100 m 10,-100 v 100 m 10,-100 v 100 m 10,-100 v 100 m 10,-100 v 100 m 10,-100 v 100 m 10,-100 v 100 m 10,-100 v 100 m 10,-100 v 100 m 10,-100 v 100 m 10,-100 v 100 m 10,-100 v 100 m 10,-100 v 100 m 10,-100 v 100 m 10,-100 v 100 m 10,-100 v 100 m 10,-100 v 100 m 10,-100 v 100 m 10,-100 v 100 m 10,-100 v 100 m 10,-100 v 100"
       id="path1491"
       inkscape:connector-curvature="0"
       style="fill:none;stroke:#2e343a;stroke-miterlimit:10" />
    <g
       id="g1495">
      <path
         class="st0"
         d="m 331,193.198 c 3.665,4.162 9.018,6.802 15,6.802 5.982,0 11.335,-2.64 15,-6.802 m 0,-26.396 C 357.335,162.64 351.982,160 346,160 c -5.982,0 -11.335,2.64 -15,6.802"
         id="path1493"
         inkscape:connector-curvature="0"
         style="fill:none;stroke:#2e343a;stroke-miterlimit:10" />
    </g>
  </g>
</svg>
