<?xml version="1.0" encoding="UTF-8" standalone="no"?>
<svg
   xmlns:dc="http://purl.org/dc/elements/1.1/"
   xmlns:cc="http://creativecommons.org/ns#"
   xmlns:rdf="http://www.w3.org/1999/02/22-rdf-syntax-ns#"
   xmlns:svg="http://www.w3.org/2000/svg"
   xmlns="http://www.w3.org/2000/svg"
   xmlns:sodipodi="http://sodipodi.sourceforge.net/DTD/sodipodi-0.dtd"
   xmlns:inkscape="http://www.inkscape.org/namespaces/inkscape"
   id="Layer_1"
   viewBox="0 0 742 240"
   version="1.1"
   sodipodi:docname="Users_Top04.svg"
   inkscape:version="0.92.3 (2405546, 2018-03-11)">
  <metadata
     id="metadata3857">
    <rdf:RDF>
      <cc:Work
         rdf:about="">
        <dc:format>image/svg+xml</dc:format>
        <dc:type
           rdf:resource="http://purl.org/dc/dcmitype/StillImage" />
        <dc:title></dc:title>
      </cc:Work>
    </rdf:RDF>
  </metadata>
  <defs
     id="defs3855">
    <inkscape:perspective
       sodipodi:type="inkscape:persp3d"
       inkscape:vp_x="0 : 120 : 1"
       inkscape:vp_y="0 : 1000 : 0"
       inkscape:vp_z="742 : 120 : 1"
       inkscape:persp3d-origin="371 : 80 : 1"
       id="perspective4734" />
  </defs>
  <sodipodi:namedview
     pagecolor="#ffffff"
     bordercolor="#666666"
     borderopacity="1"
     objecttolerance="10"
     gridtolerance="10"
     guidetolerance="10"
     inkscape:pageopacity="0"
     inkscape:pageshadow="2"
     inkscape:window-width="1920"
     inkscape:window-height="1025"
     id="namedview3853"
     showgrid="false"
     inkscape:zoom="2.3571429"
     inkscape:cx="292.51515"
     inkscape:cy="120"
     inkscape:window-x="0"
     inkscape:window-y="27"
     inkscape:window-maximized="1"
     inkscape:current-layer="Layer_1" />
  <style
     id="style3805">.st0,.st1,.st2{fill:none;stroke:#2e343a;stroke-miterlimit:10}.st1,.st2{fill:#2e343a}.st2{fill:none;stroke-linejoin:bevel}</style>
  <g
     id="phone1"
     transform="translate(315.21212,-2.5454545)">
    <path
       class="st0"
       d="M 1,30 H 101 V 210 H 1 Z m 100,190 v 10 H 1 V 220 M 1,20 V 10 h 100 v 10"
       id="path3807"
       inkscape:connector-curvature="0"
       style="fill:none;stroke:#2e343a;stroke-miterlimit:10" />
    <circle
       class="st0"
       cx="51"
       cy="220"
       r="5"
       id="circle3809"
       style="fill:none;stroke:#2e343a;stroke-miterlimit:10" />
    <circle
       class="st0"
       cx="38.5"
       cy="20"
       r="2.5"
       id="circle3811"
       style="fill:none;stroke:#2e343a;stroke-miterlimit:10" />
    <path
       class="st0"
       d="M 46,20 H 66"
       id="path3813"
       inkscape:connector-curvature="0"
       style="fill:none;stroke:#2e343a;stroke-miterlimit:10" />
  </g>
  <ellipse
     style="fill:none;stroke:#000000;stroke-width:2;stroke-miterlimit:4;stroke-dasharray:none;stroke-opacity:1;paint-order:stroke fill markers"
     id="path4716"
     cx="366.54547"
     cy="78.363655"
     rx="16.545454"
     ry="17.39394" />
  <path
     style="fill:none;stroke:#000000;stroke-width:1px;stroke-linecap:butt;stroke-linejoin:miter;stroke-opacity:1"
     d="m 347.87879,134.36364 -6.36364,1.27272 v -14 l 5.51515,2.54546 c -0.45197,-2.25988 -0.42424,-1.40014 -0.42424,-2.54546 0,-0.14141 -0.0632,-0.29775 0,-0.42424 0.0894,-0.17888 0.3348,-0.24536 0.42424,-0.42424 0.0841,-0.16821 -0.0867,-1.186 0,-1.27273 0.1,-0.1 0.32425,0.1 0.42424,0 0.1,-0.1 -0.0632,-0.29776 0,-0.42424 0.0894,-0.17888 0.33481,-0.24537 0.42425,-0.42424 0.0632,-0.12649 -0.1,-0.32425 0,-0.42425 0.1,-0.1 0.32424,0.1 0.42424,0 0.87777,-0.87777 -1.34135,0.0343 0.42424,-0.84848 0.12649,-0.0632 0.32425,0.1 0.42424,0 0.1,-0.1 -0.1,-0.32425 0,-0.42424 0.1,-0.1 0.29776,0.0632 0.42425,0 0.35775,-0.17888 0.49073,-0.66961 0.84848,-0.84849 0.25297,-0.12648 0.6485,0.19999 0.84849,0 0.1,-0.1 -0.1,-0.32425 0,-0.42424 0.1,-0.1 0.29775,0.0632 0.42424,0 1.04847,-0.52424 -0.14644,-0.42424 0.84848,-0.42424"
     id="path4762"
     inkscape:connector-curvature="0" />
  <path
     style="fill:none;stroke:#000000;stroke-width:1px;stroke-linecap:butt;stroke-linejoin:miter;stroke-opacity:1"
     d="m 352.54545,115.27273 -4.66666,-11.45455 14.84848,9.33334"
     id="path4766"
     inkscape:connector-curvature="0" />
  <path
     style="fill:none;stroke:#000000;stroke-width:1px;stroke-linecap:butt;stroke-linejoin:miter;stroke-opacity:1"
     d="m 347.87879,134.36364 c 0.28283,0.70707 0.56565,1.41414 0.84848,2.12121 0.14142,0.14141 0.31331,0.25784 0.42424,0.42424 0.17541,0.2631 0.32425,0.5485 0.42425,0.84849 0.0447,0.13415 -0.1,0.32424 0,0.42424 0.1,0.1 0.29775,-0.0632 0.42424,0 0.17888,0.0894 0.24537,0.3348 0.42424,0.42424 0.12649,0.0632 0.32425,-0.1 0.42424,0 0.1,0.1 -0.1,0.32425 0,0.42424 0.19999,0.19999 0.59552,-0.12648 0.84849,0 0.35775,0.17888 0.49073,0.66961 0.84848,0.84849 0.12649,0.0632 0.29776,-0.0632 0.42425,0 0.17887,0.0894 0.24536,0.3348 0.42424,0.42424 0.12648,0.0632 0.29776,-0.0632 0.42424,0 0.50909,0.25455 0.76364,1.01818 1.27273,1.27273 0.25297,0.12648 0.59551,-0.12649 0.84848,0 0.17888,0.0894 0.24537,0.3348 0.42425,0.42424 0.12648,0.0632 0.29775,-0.0632 0.42424,0 0.17887,0.0894 0.24536,0.3348 0.42424,0.42424 0.25297,0.12649 0.6485,-0.19999 0.84849,0 0.1,0.1 -0.1,0.32425 0,0.42424 0.0192,0.0192 1.92118,0 2.12121,0 l -0.84849,7.21213 7.63637,-0.42425 -1.27273,-8.0606 c 0.84848,0.14141 1.71836,0.18793 2.54545,0.42424 0.1923,0.0549 0.24537,0.3348 0.42425,0.42424 0.12648,0.0632 0.29775,-0.0632 0.42424,0 0.17887,0.0894 0.24536,0.33481 0.42424,0.42424 0.25297,0.12649 0.59552,-0.12648 0.84849,0 0.17887,0.0894 0.24536,0.33481 0.42424,0.42425 0.25297,0.12648 0.59551,-0.12649 0.84848,0 0.17888,0.0894 0.24537,0.3348 0.42425,0.42424 0.23014,0.11507 1.58088,-0.11608 1.69697,0 0.1,0.1 -0.1,0.32425 0,0.42424 0.1,0.1 0.28282,0 0.42424,0 0.70707,0 1.41414,0 2.12121,0 0.3007,0 2.43577,0.0549 2.54545,0 0.17888,-0.0894 0.24537,-0.3348 0.42425,-0.42424 0.25297,-0.12648 0.59551,0.12648 0.84848,0 0.17888,-0.0894 0.24537,-0.3348 0.42424,-0.42424 0.56566,-0.28283 0.42425,0.42424 0.42425,-0.42425 l 0.42424,6.78788 h 7.21212 l -1.27273,-9.33333"
     id="path4772"
     inkscape:connector-curvature="0" />
  <path
     style="fill:none;stroke:#000000;stroke-width:1px;stroke-linecap:butt;stroke-linejoin:miter;stroke-opacity:1"
     d="m 362.72727,113.15152 c 0.84849,-0.14142 1.71836,-0.18793 2.54546,-0.42425 0.19229,-0.0549 0.24536,-0.3348 0.42424,-0.42424 0.11155,-0.0558 1.47512,0 1.69697,0 1.41414,0 2.82828,0 4.24242,0 1.41414,0 2.82829,0 4.24243,0 0.14141,0 0.28283,0 0.42424,0 0.14141,0 0.32425,-0.1 0.42424,0 0.1,0.1 -0.1,0.32425 0,0.42424 0.13137,0.13137 1.98985,-0.13136 2.12121,0 0.1,0.1 -0.1,0.32425 0,0.42425 0.10209,0.10208 1.59489,-0.10209 1.69697,0 0.1,0.1 -0.1,0.32424 0,0.42424 0.1,0.1 0.28283,0 0.42425,0 0.14141,0 0.28282,0 0.42424,0 0.14141,0 0.28283,0 0.42424,0 0.14142,0 0.32425,-0.1 0.42424,0 0.1,0.1 -0.1,0.32425 0,0.42424 0.19999,0.19999 0.6485,-0.19999 0.84849,0 0.1,0.1 -0.1,0.32425 0,0.42424 0.1,0.1 0.32425,-0.1 0.42424,0 0.1,0.1 -0.1,0.32425 0,0.42424 0.21212,0.21213 1.06061,-0.21212 1.27273,0 0.1,0.1 -0.1,0.32425 0,0.42425 0.19999,0.19999 0.64849,-0.19999 0.84848,0 0.1,0.1 -0.1,0.32424 0,0.42424 0.1,0.1 0.32425,-0.1 0.42425,0 0,1.13131 -0.14142,-0.14141 0.42424,0.42424 0.1,0.1 -0.1,0.32425 0,0.42424 0.1,0.1 0.32425,-0.1 0.42424,0 0.1,0.1 -0.1,0.32425 0,0.42425 0.1,0.1 0.32425,-0.1 0.42424,0 0.1,0.1 -0.0632,0.29775 0,0.42424 0.17888,0.35775 0.66961,0.49073 0.84849,0.84848 0.0632,0.12649 -0.0632,0.29776 0,0.42425 0.0894,0.17887 0.3348,0.24536 0.42424,0.42424 0.0632,0.12648 -0.1,0.32425 0,0.42424 0.1,0.1 0.32425,-0.1 0.42424,0 0.1,0.1 -0.1,0.32425 0,0.42424 0.1,0.1 0.32425,-0.1 0.42424,0 0.19999,0.19999 -0.19998,0.6485 0,0.84849 0.1,0.1 0.32425,-0.1 0.42425,0 0.1,0.1 -0.0632,0.29776 0,0.42424 0.0894,0.17888 0.3348,0.24537 0.42424,0.42424 0.14652,0.29304 -0.14892,1.9723 0,2.12122 0.1,0.1 0.32425,-0.1 0.42424,0 0.1,0.1 -0.1,0.32424 0,0.42424 0.1,0.1 0.32425,-0.1 0.42424,0 0.14892,0.14892 -0.14651,1.82817 0,2.12121 0.0894,0.17888 0.33481,0.24537 0.42425,0.42424 0.0558,0.11155 0,1.47513 0,1.69697 0,1.41414 0,2.82829 0,4.24243 0,0.84848 0,1.69697 0,2.54545 0,0.14142 0,0.28283 0,0.42424 0,0.14142 0.0632,0.29776 0,0.42425 -0.8828,1.76559 0.0293,-0.45353 -0.84849,0.42424 -0.87777,0.87777 1.34136,-0.0343 -0.42424,0.84848 -0.12648,0.0633 -0.32425,-0.1 -0.42424,0 -0.1,0.1 0.0632,0.29776 0,0.42425 -0.0894,0.17887 -0.33481,0.24536 -0.42425,0.42424 -0.0632,0.12648 0.1,0.32425 0,0.42424 -0.1,0.1 -0.32424,-0.1 -0.42424,0 -0.1,0.1 0.1,0.32425 0,0.42424 -0.1,0.1 -0.32425,-0.1 -0.42424,0 -0.1,0.1 0.1,0.32425 0,0.42425 -0.1,0.1 -0.32425,-0.1 -0.42424,0 -0.1,0.1 0,0.28282 0,0.42424 -0.28283,0.14141 -0.56566,0.28283 -0.84849,0.42424"
     id="path4774"
     inkscape:connector-curvature="0" />
  <path
     style="fill:none;stroke:#000000;stroke-width:1px;stroke-linecap:butt;stroke-linejoin:miter;stroke-opacity:1"
     d="m 392,127.15152 c 1.13131,0 2.26263,0 3.39394,0 0.14141,0 0.32425,-0.1 0.42424,0 0.1,0.1 -0.1,0.32424 0,0.42424 0.19999,0.19999 0.6485,-0.19999 0.84849,0 0.19999,0.19999 -0.12649,0.59551 0,0.84848 0.88279,1.7656 -0.0293,-0.45353 0.84848,0.42424 0.0136,0.0137 0,1.16984 0,1.27273 0,0.14142 0.1,0.32425 0,0.42424 -0.1,0.1 -0.32425,-0.1 -0.42424,0 -0.1,0.1 0.1,0.32425 0,0.42425 -0.1,0.1 -0.32425,-0.1 -0.42424,0 -0.1,0.1 0.12648,0.361 0,0.42424 -0.25297,0.12648 -0.56566,0 -0.84849,0 -0.14141,0 -0.28283,0 -0.42424,0 -0.14142,0 -0.32425,0.1 -0.42424,0 -0.1,-0.1 0.0632,-0.29776 0,-0.42424 -0.0894,-0.17888 -0.33481,-0.24537 -0.42425,-0.42425 -0.0645,-0.12911 0,-1.08166 0,-1.27272 0,-0.14142 -0.1,-0.32425 0,-0.42425 0.1,-0.1 0.32425,0.1 0.42425,0 0.1,-0.1 -0.1,-0.32424 0,-0.42424 0.19999,-0.19999 0.64849,0.19999 0.84848,0 0.1,-0.1 -0.1,-0.32425 0,-0.42424 0.0192,-0.0192 1.92118,0 2.12121,0 0.1558,0 1.6799,-0.0171 1.69697,0 0.1,0.1 -0.1,0.32425 0,0.42424 0.19999,0.19999 0.6485,-0.19999 0.84849,0 0.1,0.1 -0.1,0.32425 0,0.42424 0.19999,0.19999 0.64849,-0.19998 0.84848,0 0.1,0.1 -0.1,0.32425 0,0.42425 0.1,0.1 0.32425,-0.1 0.42425,0 0.1,0.1 -0.1,0.32424 0,0.42424 0.1,0.1 0.32424,-0.1 0.42424,0 0.19999,0.19999 -0.19999,0.64849 0,0.84848 0.1,0.1 0.32425,-0.1 0.42424,0 0.1,0.1 -0.1,0.32425 0,0.42425 0.1,0.1 0.32425,-0.1 0.42424,0 0.0137,0.0136 0,1.16983 0,1.27272"
     id="path4780"
     inkscape:connector-curvature="0" />
  <circle
     style="fill:none;stroke:#000000;stroke-width:2;stroke-miterlimit:4;stroke-dasharray:none;stroke-opacity:1;paint-order:stroke fill markers"
     id="path4784"
     cx="353.81818"
     cy="122.90909"
     r="0.84848487" />
  <path
     style="fill:none;stroke:#000000;stroke-width:1px;stroke-linecap:butt;stroke-linejoin:miter;stroke-opacity:1"
     d="m 365.27273,119.93939 c 0.56565,-0.56565 1.13131,-1.13131 1.69697,-1.69697 0.14141,0 0.29775,0.0633 0.42424,0 0.17888,-0.0894 0.24536,-0.3348 0.42424,-0.42424 0.12649,-0.0632 0.29776,0.0632 0.42424,0 0.17888,-0.0894 0.24537,-0.3348 0.42425,-0.42424 0.12648,-0.0632 0.32424,0.1 0.42424,0 0.1,-0.1 -0.1,-0.32425 0,-0.42424 0.19999,-0.19999 0.59551,0.12648 0.84848,0 0.17888,-0.0894 0.23452,-0.361 0.42425,-0.42425 0.23461,-0.0782 2.11822,0 2.54545,0 0.22664,0 1.99979,-0.0607 2.12121,0 0.17888,0.0894 0.23452,0.361 0.42424,0.42425 0.26832,0.0894 0.57411,-0.0686 0.84849,0 0.61354,0.15338 1.097,0.64849 1.69697,0.84848 0.13416,0.0447 0.29776,-0.0632 0.42424,0 0.17888,0.0894 0.24537,0.33481 0.42424,0.42424 0.25297,0.12649 0.59552,-0.12648 0.84849,0 1.76559,0.8828 -0.45353,-0.0293 0.42424,0.84849 0.19999,0.19999 0.6485,-0.19999 0.84849,0 0.1,0.1 -0.1,0.32425 0,0.42424 0.1,0.1 0.361,-0.12648 0.42424,0 0.49495,0.9899 -0.5303,0.84849 0.42424,0.84849"
     id="path4786"
     inkscape:connector-curvature="0" />
  <path
     style="fill:none;stroke:#000000;stroke-width:1px;stroke-linecap:butt;stroke-linejoin:miter;stroke-opacity:1"
     d="m 367.39394,98.727273 v 9.757577 l -7.21212,-5.09091"
     id="path4788"
     inkscape:connector-curvature="0" />
  <path
     style="fill:none;stroke:#000000;stroke-width:1px;stroke-linecap:butt;stroke-linejoin:miter;stroke-opacity:1"
     d="m 367.39394,108.48485 7.21212,-4.66667"
     id="path4790"
     inkscape:connector-curvature="0" />
  <text
     xml:space="preserve"
     style="font-style:normal;font-weight:normal;font-size:26.35027313px;line-height:1.25;font-family:sans-serif;letter-spacing:0px;word-spacing:0px;fill:#000000;fill-opacity:1;stroke:none;stroke-width:0.65875685"
     x="333.85068"
     y="92.882706"
     id="text4794"
     transform="scale(1.072892,0.93206028)"><tspan
       sodipodi:role="line"
       id="tspan4792"
       x="333.85068"
       y="92.882706"
       style="stroke-width:0.65875685">$</tspan></text>
</svg>
