<?xml version="1.0" encoding="UTF-8" standalone="no"?>
<svg
   xmlns:dc="http://purl.org/dc/elements/1.1/"
   xmlns:cc="http://creativecommons.org/ns#"
   xmlns:rdf="http://www.w3.org/1999/02/22-rdf-syntax-ns#"
   xmlns:svg="http://www.w3.org/2000/svg"
   xmlns="http://www.w3.org/2000/svg"
   xmlns:sodipodi="http://sodipodi.sourceforge.net/DTD/sodipodi-0.dtd"
   xmlns:inkscape="http://www.inkscape.org/namespaces/inkscape"
   id="Layer_1"
   viewBox="0 0 742 240"
   version="1.1"
   sodipodi:docname="Users_Top03.svg"
   inkscape:version="0.92.3 (2405546, 2018-03-11)">
  <metadata
     id="metadata3857">
    <rdf:RDF>
      <cc:Work
         rdf:about="">
        <dc:format>image/svg+xml</dc:format>
        <dc:type
           rdf:resource="http://purl.org/dc/dcmitype/StillImage" />
        <dc:title></dc:title>
      </cc:Work>
    </rdf:RDF>
  </metadata>
  <defs
     id="defs3855" />
  <sodipodi:namedview
     pagecolor="#ffffff"
     bordercolor="#666666"
     borderopacity="1"
     objecttolerance="10"
     gridtolerance="10"
     guidetolerance="10"
     inkscape:pageopacity="0"
     inkscape:pageshadow="2"
     inkscape:window-width="1920"
     inkscape:window-height="1025"
     id="namedview3853"
     showgrid="false"
     inkscape:zoom="2.3571429"
     inkscape:cx="371"
     inkscape:cy="120"
     inkscape:window-x="0"
     inkscape:window-y="27"
     inkscape:window-maximized="1"
     inkscape:current-layer="Layer_1" />
  <style
     id="style3805">.st0,.st1,.st2{fill:none;stroke:#2e343a;stroke-miterlimit:10}.st1,.st2{fill:#2e343a}.st2{fill:none;stroke-linejoin:bevel}</style>
  <g
     id="phone1">
    <path
       class="st0"
       d="M1 30h100v180H1zM101 220v10H1v-10M1 20V10h100v10"
       id="path3807" />
    <circle
       class="st0"
       cx="51"
       cy="220"
       r="5"
       id="circle3809" />
    <circle
       class="st0"
       cx="38.5"
       cy="20"
       r="2.5"
       id="circle3811" />
    <path
       class="st0"
       d="M46 20h20"
       id="path3813" />
  </g>
  <g
     id="phone2">
    <path
       class="st0"
       d="M641 30h100v180H641zM741 220v10H641v-10M641 20V10h100v10"
       id="path3816" />
    <circle
       class="st0"
       cx="691"
       cy="220"
       r="5"
       id="circle3818" />
    <circle
       class="st0"
       cx="678.5"
       cy="20"
       r="2.5"
       id="circle3820" />
    <path
       class="st0"
       d="M686 20h20"
       id="path3822" />
  </g>
  <g
     id="file1">
    <path
       class="st0"
       d="M86 45v93.333H16V66.098L37.098 45z"
       id="path3825" />
    <path
       class="st1"
       d="M61.542 91.667L43.271 81.118v21.097z"
       id="path3827" />
    <path
       class="st0"
       d="M37.098 52.033v14.065H23.033"
       id="path3829" />
  </g>
  <g
     id="file2">
    <path
       class="st0"
       d="M406 45v93.333h-70V66.098L357.098 45z"
       id="path3832" />
    <path
       class="st1"
       d="M381.542 91.667l-18.271-10.549v21.097z"
       id="path3834" />
    <path
       class="st0"
       d="M357.098 52.033v14.065h-14.065M111 91.667h225M406 91.667h225"
       id="path3836" />
    <path
       class="st2"
       d="M621 81.667l10 10-10 10"
       id="path3838" />
  </g>
</svg>
